<svg width="207" height="60" viewBox="0 0 207 60" fill="none" xmlns="http://www.w3.org/2000/svg">
<g filter="url(#filter0_d_9_5871)">
<path d="M60.4785 27.1953C60.4785 26.6159 60.5892 26.0723 60.8105 25.5645C61.0319 25.0566 61.3314 24.6139 61.709 24.2363C62.0931 23.8522 62.5391 23.5495 63.0469 23.3281C63.5547 23.1068 64.0983 22.9961 64.6777 22.9961H71.1035V25.7988H64.6777C64.4824 25.7988 64.3001 25.8346 64.1309 25.9062C63.9616 25.9779 63.8118 26.0788 63.6816 26.209C63.5579 26.3327 63.4603 26.4792 63.3887 26.6484C63.3171 26.8177 63.2812 27 63.2812 27.1953C63.2812 27.3906 63.3171 27.5762 63.3887 27.752C63.4603 27.9212 63.5579 28.071 63.6816 28.2012C63.8118 28.3249 63.9616 28.4225 64.1309 28.4941C64.3001 28.5658 64.4824 28.6016 64.6777 28.6016H67.4805C68.0599 28.6016 68.6035 28.7122 69.1113 28.9336C69.6257 29.1484 70.0716 29.4479 70.4492 29.832C70.8333 30.2096 71.1328 30.6556 71.3477 31.1699C71.569 31.6777 71.6797 32.2214 71.6797 32.8008C71.6797 33.3802 71.569 33.9238 71.3477 34.4316C71.1328 34.9395 70.8333 35.3854 70.4492 35.7695C70.0716 36.1471 69.6257 36.4466 69.1113 36.668C68.6035 36.8893 68.0599 37 67.4805 37H61.2598V34.1973H67.4805C67.6758 34.1973 67.8581 34.1615 68.0273 34.0898C68.1966 34.0182 68.3431 33.9206 68.4668 33.7969C68.597 33.6667 68.6979 33.5169 68.7695 33.3477C68.8411 33.1784 68.877 32.9961 68.877 32.8008C68.877 32.6055 68.8411 32.4232 68.7695 32.2539C68.6979 32.0846 68.597 31.9382 68.4668 31.8145C68.3431 31.6842 68.1966 31.5833 68.0273 31.5117C67.8581 31.4401 67.6758 31.4043 67.4805 31.4043H64.6777C64.0983 31.4043 63.5547 31.2936 63.0469 31.0723C62.5391 30.8509 62.0931 30.5514 61.709 30.1738C61.3314 29.7897 61.0319 29.3438 60.8105 28.8359C60.5892 28.3216 60.4785 27.7747 60.4785 27.1953ZM88.4453 37H85.7891V30.3594C85.7891 30.1771 85.7533 30.0046 85.6816 29.8418C85.6165 29.679 85.5221 29.5358 85.3984 29.4121C85.2747 29.2884 85.1315 29.194 84.9688 29.1289C84.806 29.0573 84.6335 29.0215 84.4512 29.0215C84.2689 29.0215 84.0964 29.0573 83.9336 29.1289C83.7773 29.194 83.6374 29.2884 83.5137 29.4121C83.3965 29.5358 83.3021 29.679 83.2305 29.8418C83.1654 30.0046 83.1328 30.1771 83.1328 30.3594V37H80.4668V30.3594C80.4668 30.1771 80.431 30.0046 80.3594 29.8418C80.2943 29.679 80.1999 29.5358 80.0762 29.4121C79.9525 29.2884 79.8092 29.194 79.6465 29.1289C79.4837 29.0573 79.3112 29.0215 79.1289 29.0215C78.9466 29.0215 78.7741 29.0573 78.6113 29.1289C78.4551 29.194 78.3151 29.2884 78.1914 29.4121C78.0742 29.5358 77.9798 29.679 77.9082 29.8418C77.8431 30.0046 77.8105 30.1771 77.8105 30.3594V37H75.1445V26.541H75.7891L76.5117 27.3418C76.8828 27.0293 77.2897 26.7884 77.7324 26.6191C78.1816 26.4434 78.6471 26.3555 79.1289 26.3555C79.6172 26.3555 80.0924 26.4466 80.5547 26.6289C81.0234 26.8112 81.4336 27.127 81.7852 27.5762C81.9479 27.3548 82.1335 27.166 82.3418 27.0098C82.5501 26.8535 82.7682 26.7266 82.9961 26.6289C83.2305 26.5312 83.4714 26.4629 83.7188 26.4238C83.9661 26.3783 84.2103 26.3555 84.4512 26.3555C85.0046 26.3555 85.5221 26.4596 86.0039 26.668C86.4922 26.8763 86.9154 27.1628 87.2734 27.5273C87.638 27.8854 87.9245 28.3086 88.1328 28.7969C88.3411 29.2852 88.4453 29.806 88.4453 30.3594V37ZM102.506 31.6777C102.506 32.459 102.366 33.1882 102.086 33.8652C101.806 34.5358 101.425 35.1185 100.943 35.6133C100.462 36.1016 99.8952 36.4889 99.2441 36.7754C98.5996 37.0553 97.9062 37.1953 97.1641 37.1953C96.4284 37.1953 95.735 37.0553 95.084 36.7754C94.4395 36.4889 93.873 36.1016 93.3848 35.6133C92.903 35.1185 92.5221 34.5358 92.2422 33.8652C91.9622 33.1882 91.8223 32.459 91.8223 31.6777C91.8223 30.8835 91.9622 30.1478 92.2422 29.4707C92.5221 28.7936 92.903 28.2109 93.3848 27.7227C93.873 27.2279 94.4395 26.8405 95.084 26.5605C95.735 26.2806 96.4284 26.1406 97.1641 26.1406C97.9062 26.1406 98.5996 26.2741 99.2441 26.541C99.8952 26.8014 100.462 27.1758 100.943 27.6641C101.425 28.1458 101.806 28.7285 102.086 29.4121C102.366 30.0892 102.506 30.8444 102.506 31.6777ZM99.8203 31.6777C99.8203 31.248 99.7487 30.8607 99.6055 30.5156C99.4688 30.1641 99.2799 29.8646 99.0391 29.6172C98.7982 29.3633 98.515 29.1712 98.1895 29.041C97.8704 28.9043 97.5286 28.8359 97.1641 28.8359C96.7995 28.8359 96.4544 28.9043 96.1289 29.041C95.8099 29.1712 95.5299 29.3633 95.2891 29.6172C95.0547 29.8646 94.8691 30.1641 94.7324 30.5156C94.5957 30.8607 94.5273 31.248 94.5273 31.6777C94.5273 32.0814 94.5957 32.4557 94.7324 32.8008C94.8691 33.1458 95.0547 33.4453 95.2891 33.6992C95.5299 33.9531 95.8099 34.1549 96.1289 34.3047C96.4544 34.4479 96.7995 34.5195 97.1641 34.5195C97.5286 34.5195 97.8704 34.4512 98.1895 34.3145C98.515 34.1777 98.7982 33.9857 99.0391 33.7383C99.2799 33.4909 99.4688 33.1914 99.6055 32.8398C99.7487 32.4883 99.8203 32.1009 99.8203 31.6777ZM116.088 31.6777C116.088 32.459 115.948 33.1882 115.668 33.8652C115.388 34.5358 115.007 35.1185 114.525 35.6133C114.044 36.1016 113.477 36.4889 112.826 36.7754C112.182 37.0553 111.488 37.1953 110.746 37.1953C110.01 37.1953 109.317 37.0553 108.666 36.7754C108.021 36.4889 107.455 36.1016 106.967 35.6133C106.485 35.1185 106.104 34.5358 105.824 33.8652C105.544 33.1882 105.404 32.459 105.404 31.6777C105.404 30.8835 105.544 30.1478 105.824 29.4707C106.104 28.7936 106.485 28.2109 106.967 27.7227C107.455 27.2279 108.021 26.8405 108.666 26.5605C109.317 26.2806 110.01 26.1406 110.746 26.1406C111.488 26.1406 112.182 26.2741 112.826 26.541C113.477 26.8014 114.044 27.1758 114.525 27.6641C115.007 28.1458 115.388 28.7285 115.668 29.4121C115.948 30.0892 116.088 30.8444 116.088 31.6777ZM113.402 31.6777C113.402 31.248 113.331 30.8607 113.188 30.5156C113.051 30.1641 112.862 29.8646 112.621 29.6172C112.38 29.3633 112.097 29.1712 111.771 29.041C111.452 28.9043 111.111 28.8359 110.746 28.8359C110.382 28.8359 110.036 28.9043 109.711 29.041C109.392 29.1712 109.112 29.3633 108.871 29.6172C108.637 29.8646 108.451 30.1641 108.314 30.5156C108.178 30.8607 108.109 31.248 108.109 31.6777C108.109 32.0814 108.178 32.4557 108.314 32.8008C108.451 33.1458 108.637 33.4453 108.871 33.6992C109.112 33.9531 109.392 34.1549 109.711 34.3047C110.036 34.4479 110.382 34.5195 110.746 34.5195C111.111 34.5195 111.452 34.4512 111.771 34.3145C112.097 34.1777 112.38 33.9857 112.621 33.7383C112.862 33.4909 113.051 33.1914 113.188 32.8398C113.331 32.4883 113.402 32.1009 113.402 31.6777ZM124.729 37C124.084 37 123.479 36.8796 122.912 36.6387C122.346 36.3913 121.848 36.056 121.418 35.6328C120.995 35.2031 120.66 34.7051 120.412 34.1387C120.171 33.5723 120.051 32.9668 120.051 32.3223V29.2168H118.752V26.5605H120.051V22.3809H122.707V26.5605H126.75V29.2168H122.707V32.3223C122.707 32.6022 122.759 32.8659 122.863 33.1133C122.967 33.3542 123.111 33.5658 123.293 33.748C123.475 33.9303 123.69 34.0768 123.938 34.1875C124.185 34.2917 124.449 34.3438 124.729 34.3438H126.75V37H124.729ZM132.92 37H130.254V22.3809H132.92V27C133.239 26.7591 133.568 26.5898 133.906 26.4922C134.245 26.388 134.59 26.3359 134.941 26.3359C135.586 26.3359 136.191 26.4596 136.758 26.707C137.324 26.9479 137.816 27.2832 138.232 27.7129C138.656 28.1361 138.988 28.6341 139.229 29.207C139.476 29.7734 139.6 30.3789 139.6 31.0234V37H136.914V31.0234H136.934C136.934 30.75 136.882 30.4928 136.777 30.252C136.673 30.0046 136.53 29.7897 136.348 29.6074C136.165 29.4251 135.954 29.2819 135.713 29.1777C135.472 29.0736 135.215 29.0215 134.941 29.0215C134.661 29.0215 134.398 29.0736 134.15 29.1777C133.903 29.2819 133.688 29.4251 133.506 29.6074C133.324 29.7897 133.18 30.0046 133.076 30.252C132.972 30.4928 132.92 30.75 132.92 31.0234V37ZM150.572 27.1953C150.572 26.6159 150.683 26.0723 150.904 25.5645C151.126 25.0566 151.425 24.6139 151.803 24.2363C152.187 23.8522 152.633 23.5495 153.141 23.3281C153.648 23.1068 154.192 22.9961 154.771 22.9961H161.197V25.7988H154.771C154.576 25.7988 154.394 25.8346 154.225 25.9062C154.055 25.9779 153.906 26.0788 153.775 26.209C153.652 26.3327 153.554 26.4792 153.482 26.6484C153.411 26.8177 153.375 27 153.375 27.1953C153.375 27.3906 153.411 27.5762 153.482 27.752C153.554 27.9212 153.652 28.071 153.775 28.2012C153.906 28.3249 154.055 28.4225 154.225 28.4941C154.394 28.5658 154.576 28.6016 154.771 28.6016H157.574C158.154 28.6016 158.697 28.7122 159.205 28.9336C159.719 29.1484 160.165 29.4479 160.543 29.832C160.927 30.2096 161.227 30.6556 161.441 31.1699C161.663 31.6777 161.773 32.2214 161.773 32.8008C161.773 33.3802 161.663 33.9238 161.441 34.4316C161.227 34.9395 160.927 35.3854 160.543 35.7695C160.165 36.1471 159.719 36.4466 159.205 36.668C158.697 36.8893 158.154 37 157.574 37H151.354V34.1973H157.574C157.77 34.1973 157.952 34.1615 158.121 34.0898C158.29 34.0182 158.437 33.9206 158.561 33.7969C158.691 33.6667 158.792 33.5169 158.863 33.3477C158.935 33.1784 158.971 32.9961 158.971 32.8008C158.971 32.6055 158.935 32.4232 158.863 32.2539C158.792 32.0846 158.691 31.9382 158.561 31.8145C158.437 31.6842 158.29 31.5833 158.121 31.5117C157.952 31.4401 157.77 31.4043 157.574 31.4043H154.771C154.192 31.4043 153.648 31.2936 153.141 31.0723C152.633 30.8509 152.187 30.5514 151.803 30.1738C151.425 29.7897 151.126 29.3438 150.904 28.8359C150.683 28.3216 150.572 27.7747 150.572 27.1953ZM175.463 37H174.818L173.783 35.5645C173.529 35.7923 173.259 36.0072 172.973 36.209C172.693 36.4043 172.396 36.5768 172.084 36.7266C171.771 36.8698 171.449 36.9837 171.117 37.0684C170.792 37.153 170.46 37.1953 170.121 37.1953C169.385 37.1953 168.692 37.0716 168.041 36.8242C167.396 36.5768 166.83 36.2188 166.342 35.75C165.86 35.2747 165.479 34.6953 165.199 34.0117C164.919 33.3281 164.779 32.5501 164.779 31.6777C164.779 30.8639 164.919 30.1185 165.199 29.4414C165.479 28.7578 165.86 28.1719 166.342 27.6836C166.83 27.1953 167.396 26.8177 168.041 26.5508C168.692 26.2773 169.385 26.1406 170.121 26.1406C170.46 26.1406 170.795 26.1829 171.127 26.2676C171.459 26.3522 171.781 26.4694 172.094 26.6191C172.406 26.7689 172.702 26.9447 172.982 27.1465C173.269 27.3483 173.536 27.5664 173.783 27.8008L174.818 26.5605H175.463V37ZM172.777 31.6777C172.777 31.3132 172.706 30.9616 172.562 30.623C172.426 30.278 172.237 29.9753 171.996 29.7148C171.755 29.4479 171.472 29.2363 171.146 29.0801C170.827 28.9173 170.486 28.8359 170.121 28.8359C169.757 28.8359 169.411 28.8978 169.086 29.0215C168.767 29.1452 168.487 29.3275 168.246 29.5684C168.012 29.8092 167.826 30.1087 167.689 30.4668C167.553 30.8184 167.484 31.222 167.484 31.6777C167.484 32.1335 167.553 32.5404 167.689 32.8984C167.826 33.25 168.012 33.5462 168.246 33.7871C168.487 34.028 168.767 34.2103 169.086 34.334C169.411 34.4577 169.757 34.5195 170.121 34.5195C170.486 34.5195 170.827 34.4414 171.146 34.2852C171.472 34.1224 171.755 33.9108 171.996 33.6504C172.237 33.3835 172.426 33.0807 172.562 32.7422C172.706 32.3971 172.777 32.0423 172.777 31.6777ZM182.648 23.6992C182.648 23.9466 182.6 24.1777 182.502 24.3926C182.411 24.6074 182.284 24.7962 182.121 24.959C181.958 25.1152 181.766 25.2422 181.545 25.3398C181.33 25.431 181.099 25.4766 180.852 25.4766C180.604 25.4766 180.37 25.431 180.148 25.3398C179.934 25.2422 179.745 25.1152 179.582 24.959C179.426 24.7962 179.299 24.6074 179.201 24.3926C179.11 24.1777 179.064 23.9466 179.064 23.6992C179.064 23.4583 179.11 23.2305 179.201 23.0156C179.299 22.7943 179.426 22.6055 179.582 22.4492C179.745 22.2865 179.934 22.1595 180.148 22.0684C180.37 21.9707 180.604 21.9219 180.852 21.9219C181.099 21.9219 181.33 21.9707 181.545 22.0684C181.766 22.1595 181.958 22.2865 182.121 22.4492C182.284 22.6055 182.411 22.7943 182.502 23.0156C182.6 23.2305 182.648 23.4583 182.648 23.6992ZM182.189 37H179.504V26.541H182.189V37ZM188.916 37H186.23V22.3809H188.916V37ZM198.699 37H192.605V34.3438H198.699C198.882 34.3438 199.038 34.2786 199.168 34.1484C199.298 34.0182 199.363 33.862 199.363 33.6797C199.363 33.4909 199.298 33.3672 199.168 33.3086C199.038 33.25 198.882 33.2207 198.699 33.2207H195.926C195.464 33.2207 195.031 33.1328 194.627 32.957C194.223 32.7812 193.872 32.5436 193.572 32.2441C193.273 31.9382 193.035 31.5833 192.859 31.1797C192.69 30.776 192.605 30.3431 192.605 29.8809C192.605 29.4186 192.69 28.9857 192.859 28.582C193.035 28.1784 193.273 27.8268 193.572 27.5273C193.872 27.2279 194.223 26.9935 194.627 26.8242C195.031 26.6484 195.464 26.5605 195.926 26.5605H201.326V29.2168H195.926C195.743 29.2168 195.587 29.2819 195.457 29.4121C195.327 29.5423 195.262 29.6986 195.262 29.8809C195.262 30.0697 195.327 30.2324 195.457 30.3691C195.587 30.4993 195.743 30.5645 195.926 30.5645H198.699C199.155 30.5645 199.585 30.6426 199.988 30.7988C200.392 30.9486 200.743 31.1602 201.043 31.4336C201.342 31.707 201.58 32.0358 201.756 32.4199C201.932 32.804 202.02 33.224 202.02 33.6797C202.02 34.1419 201.932 34.5749 201.756 34.9785C201.58 35.3757 201.342 35.7272 201.043 36.0332C200.743 36.3327 200.392 36.5703 199.988 36.7461C199.585 36.9154 199.155 37 198.699 37Z" fill="url(#paint0_linear_9_5871)"/>
</g>
<path d="M32.9212 6.86243C8.17929 21.4034 0.664606 44.3895 0 54.0649C11.9073 47.5363 26.9088 54.6522 32.9212 59.0263C19.864 39.1066 27.4807 15.9505 32.9212 6.86243Z" fill="#1E9877"/>
<path d="M31.0663 48.1298C28.1358 23.4621 34.9612 5.79598 41.4063 0C36.4728 25.0015 52.7973 49.2736 59.9998 58.3771C44.3089 43.9475 34.8993 45.5641 31.0663 48.1298Z" fill="#01C38E"/>
<defs>
<filter id="filter0_d_9_5871" x="56.4785" y="19.9219" width="149.541" height="23.2734" filterUnits="userSpaceOnUse" color-interpolation-filters="sRGB">
<feFlood flood-opacity="0" result="BackgroundImageFix"/>
<feColorMatrix in="SourceAlpha" type="matrix" values="0 0 0 0 0 0 0 0 0 0 0 0 0 0 0 0 0 0 127 0" result="hardAlpha"/>
<feOffset dy="2"/>
<feGaussianBlur stdDeviation="2"/>
<feComposite in2="hardAlpha" operator="out"/>
<feColorMatrix type="matrix" values="0 0 0 0 0 0 0 0 0 0 0 0 0 0 0 0 0 0 0.25 0"/>
<feBlend mode="normal" in2="BackgroundImageFix" result="effect1_dropShadow_9_5871"/>
<feBlend mode="normal" in="SourceGraphic" in2="effect1_dropShadow_9_5871" result="shape"/>
</filter>
<linearGradient id="paint0_linear_9_5871" x1="60" y1="29" x2="203" y2="29" gradientUnits="userSpaceOnUse">
<stop stop-color="#1E9877"/>
<stop offset="1" stop-color="#01C38E"/>
</linearGradient>
</defs>
</svg>
