<svg width="24" height="24" viewBox="0 0 24 24" fill="none" xmlns="http://www.w3.org/2000/svg">
<path d="M17 17C17.4167 17 17.7707 16.854 18.062 16.562C18.354 16.2707 18.5 15.9167 18.5 15.5C18.5 15.0833 18.354 14.7293 18.062 14.438C17.7707 14.146 17.4167 14 17 14C16.5833 14 16.2293 14.146 15.938 14.438C15.646 14.7293 15.5 15.0833 15.5 15.5C15.5 15.9167 15.646 16.2707 15.938 16.562C16.2293 16.854 16.5833 17 17 17ZM17 20C17.5167 20 17.9917 19.879 18.425 19.637C18.8583 19.3957 19.2083 19.075 19.475 18.675C19.1083 18.4583 18.7167 18.2917 18.3 18.175C17.8833 18.0583 17.45 18 17 18C16.55 18 16.1167 18.0583 15.7 18.175C15.2833 18.2917 14.8917 18.4583 14.525 18.675C14.7917 19.075 15.1417 19.3957 15.575 19.637C16.0083 19.879 16.4833 20 17 20ZM17 22C15.6167 22 14.4377 21.5127 13.463 20.538C12.4877 19.5627 12 18.3833 12 17C12 15.6167 12.4877 14.4373 13.463 13.462C14.4377 12.4873 15.6167 12 17 12C18.3833 12 19.5627 12.4873 20.538 13.462C21.5127 14.4373 22 15.6167 22 17C22 18.3833 21.5127 19.5627 20.538 20.538C19.5627 21.5127 18.3833 22 17 22ZM12 22C9.68333 21.4167 7.771 20.0873 6.263 18.012C4.75433 15.9373 4 13.6333 4 11.1V5L12 2L20 5V10.675C19.5667 10.4583 19.0793 10.2917 18.538 10.175C17.996 10.0583 17.4833 10 17 10C15.0667 10 13.4167 10.6833 12.05 12.05C10.6833 13.4167 10 15.0667 10 17C10 18.0333 10.196 18.9667 10.588 19.8C10.9793 20.6333 11.475 21.3583 12.075 21.975C12.0583 21.975 12.046 21.9793 12.038 21.988C12.0293 21.996 12.0167 22 12 22Z" fill="black"/>
</svg>
