<svg width="21" height="24" viewBox="0 0 21 24" fill="none" xmlns="http://www.w3.org/2000/svg">
<g clip-path="url(#clip0_9_2751)">
<path d="M10.5001 0C9.67044 0 9.00013 0.670312 9.00013 1.5V2.4C5.57825 3.09375 3.00013 6.12187 3.00013 9.75V10.6313C3.00013 12.8344 2.18919 14.9625 0.726691 16.6125L0.379816 17.0016C-0.0139336 17.4422 -0.107684 18.075 0.131379 18.6141C0.370441 19.1531 0.909504 19.5 1.50013 19.5H19.5001C20.0908 19.5 20.6251 19.1531 20.8689 18.6141C21.1126 18.075 21.0142 17.4422 20.6204 17.0016L20.2736 16.6125C18.8111 14.9625 18.0001 12.8391 18.0001 10.6313V9.75C18.0001 6.12187 15.422 3.09375 12.0001 2.4V1.5C12.0001 0.670312 11.3298 0 10.5001 0ZM12.6236 23.1234C13.1861 22.5609 13.5001 21.7969 13.5001 21H7.50013C7.50013 21.7969 7.81419 22.5609 8.37669 23.1234C8.93919 23.6859 9.70325 24 10.5001 24C11.297 24 12.0611 23.6859 12.6236 23.1234Z" fill="black"/>
</g>
<defs>
<clipPath id="clip0_9_2751">
<rect width="21" height="24" fill="white"/>
</clipPath>
</defs>
</svg>
