<svg width="24" height="24" viewBox="0 0 24 24" fill="none" xmlns="http://www.w3.org/2000/svg">
<path d="M16.5 14.8V9.2C16.5 8.96667 16.4 8.80833 16.2 8.725C16 8.64167 15.8167 8.68333 15.65 8.85L13.2 11.3C13 11.5 12.9 11.7333 12.9 12C12.9 12.2667 13 12.5 13.2 12.7L15.65 15.15C15.8167 15.3167 16 15.3583 16.2 15.275C16.4 15.1917 16.5 15.0333 16.5 14.8ZM5 21C4.45 21 3.979 20.8043 3.587 20.413C3.19567 20.021 3 19.55 3 19V5C3 4.45 3.19567 3.979 3.587 3.587C3.979 3.19567 4.45 3 5 3H19C19.55 3 20.021 3.19567 20.413 3.587C20.8043 3.979 21 4.45 21 5V19C21 19.55 20.8043 20.021 20.413 20.413C20.021 20.8043 19.55 21 19 21H5ZM10 19H19V5H10V19Z" fill="black"/>
</svg>
