<svg width="24" height="24" viewBox="0 0 24 24" fill="none" xmlns="http://www.w3.org/2000/svg">
<g clip-path="url(#clip0_9_2765)">
<path fill-rule="evenodd" clip-rule="evenodd" d="M12 24C18.6274 24 24 18.6274 24 12C24 5.37258 18.6274 0 12 0C5.37258 0 0 5.37258 0 12C0 18.6274 5.37258 24 12 24ZM13.1932 14.3201L17.6477 18.7809C17.7936 18.927 17.9792 19 18.2045 19C18.4299 19 18.6155 18.927 18.7614 18.7809C18.9205 18.6216 19 18.4358 19 18.2233C19 18.0109 18.9271 17.8317 18.7812 17.6856L14.3068 13.2048C14.625 12.8065 14.8769 12.3485 15.0625 11.8307C15.2481 11.3129 15.3409 10.762 15.3409 10.1778C15.3409 8.73068 14.8406 7.50579 13.8399 6.50316C12.8387 5.50105 11.6155 5 10.1705 5C8.72538 5 7.5025 5.50105 6.50182 6.50316C5.50061 7.50579 5 8.73068 5 10.1778C5 11.6249 5.50061 12.8498 6.50182 13.8525C7.5025 14.8546 8.72538 15.3556 10.1705 15.3556C10.7538 15.3556 11.304 15.2627 11.821 15.0768C12.3381 14.8909 12.7955 14.6387 13.1932 14.3201ZM12.7064 12.7173C12.0101 13.4141 11.1648 13.7624 10.1705 13.7624C9.17614 13.7624 8.33083 13.4141 7.63455 12.7173C6.93879 12.02 6.59091 11.1735 6.59091 10.1778C6.59091 9.18208 6.93879 8.33557 7.63455 7.63829C8.33083 6.94155 9.17614 6.59317 10.1705 6.59317C11.1648 6.59317 12.0101 6.94155 12.7064 7.63829C13.4021 8.33557 13.75 9.18208 13.75 10.1778C13.75 11.1735 13.4021 12.02 12.7064 12.7173Z" fill="black"/>
</g>
<defs>
<clipPath id="clip0_9_2765">
<rect width="24" height="24" fill="white"/>
</clipPath>
</defs>
</svg>
